<?xml version="1.0" encoding="UTF-8" standalone="no"?>
<!DOCTYPE svg PUBLIC "-//W3C//DTD SVG 1.1//EN" "http://www.w3.org/Graphics/SVG/1.1/DTD/svg11.dtd">
<svg width="100%" height="100%" viewBox="0 0 512 512" version="1.1" xmlns="http://www.w3.org/2000/svg" xmlns:xlink="http://www.w3.org/1999/xlink" xml:space="preserve" xmlns:serif="http://www.serif.com/" style="fill-rule:evenodd;clip-rule:evenodd;stroke-linejoin:round;stroke-miterlimit:2;">
    <g transform="matrix(63.2595,0,0,63.2595,-8181.04,-18319.5)">
        <path d="M131.792,297.443C131.408,297.443 131.044,297.375 130.7,297.239C130.356,297.103 130.068,296.895 129.836,296.615L130.508,295.547L130.568,295.451L130.664,295.511C130.68,295.575 130.7,295.639 130.724,295.703C130.748,295.767 130.808,295.847 130.904,295.943C131.016,296.023 131.136,296.085 131.264,296.129C131.392,296.173 131.528,296.195 131.672,296.195C131.88,296.195 132.054,296.138 132.194,296.023C132.334,295.908 132.44,295.734 132.512,295.5C132.584,295.266 132.62,294.974 132.62,294.626L132.62,290.927L131.24,290.927L131.24,289.835L135.068,289.835L135.068,290.927L133.964,290.927L133.964,294.727C133.972,295.196 133.916,295.599 133.796,295.936C133.676,296.274 133.512,296.554 133.304,296.776C133.096,296.999 132.86,297.165 132.596,297.277C132.332,297.388 132.064,297.443 131.792,297.443Z" style="fill:rgb(245,51,94);fill-rule:nonzero;"/>
    </g>
    <g transform="matrix(1.54474e-17,0.252275,-0.252275,1.54474e-17,433.777,11.0276)">
        <path d="M765.857,248.308L529.773,248.308L549.51,171.638L746.879,171.638L765.857,248.308ZM651.231,47.712L544.955,344.716L432.606,344.716L621.625,-131.249L681.595,-131.249L869.856,344.716L755.989,344.716L651.231,47.712Z" style="fill:rgb(245,51,94);fill-rule:nonzero;"/>
        <path d="M1132.51,353.066C1101.13,353.066 1071.65,348.193 1044.07,338.447C1016.49,328.701 992.326,313.958 971.577,294.217C950.828,274.476 934.634,249.611 922.994,219.622C911.354,189.633 905.534,154.146 905.534,113.162C905.534,76.669 910.089,44.804 919.198,17.567C928.308,-9.67 940.707,-32.786 956.395,-51.779C972.083,-70.773 989.796,-86.017 1009.53,-97.51C1029.27,-109.004 1050.02,-117.5 1071.78,-123C1093.54,-128.499 1115.05,-131.249 1136.31,-131.249C1179.83,-131.249 1216.77,-123.405 1247.14,-107.717C1277.5,-92.028 1300.78,-69.508 1316.97,-40.155L1257.76,16.778L1252.45,21.333L1247.14,16.019C1247.14,11.97 1246.5,8.048 1245.24,4.253C1243.97,0.457 1240.81,-4.73 1235.75,-11.309C1223.6,-23.455 1209.56,-31.679 1193.62,-35.98C1177.68,-40.282 1160.85,-42.433 1143.14,-42.433C1127.45,-42.433 1112.01,-39.331 1096.83,-33.128C1081.65,-26.924 1067.86,-17.619 1055.46,-5.212C1043.06,7.194 1033.19,22.95 1025.85,42.054C1018.52,61.159 1014.85,83.612 1014.85,109.414C1014.85,134.227 1017.76,156.309 1023.58,175.658C1029.4,195.008 1037.75,211.135 1048.63,224.04C1059.51,236.945 1072.29,246.746 1086.96,253.444C1101.64,260.142 1117.83,263.49 1135.55,263.49C1150.22,263.49 1164.01,262.099 1176.92,259.315C1189.82,256.532 1201.84,251.471 1212.98,244.133C1224.11,236.795 1233.73,226.8 1241.82,214.148L1310.9,274.118C1289.65,303.977 1264.47,324.599 1235.37,335.986C1206.27,347.373 1171.98,353.066 1132.51,353.066Z" style="fill:rgb(245,51,94);fill-rule:nonzero;"/>
        <path d="M1509.79,142.791L1472.59,185.302L1472.59,344.716L1367.08,344.716L1367.08,-128.213L1478.67,-128.213L1478.67,-120.622C1476.13,-117.585 1474.49,-114.296 1473.73,-110.753C1472.97,-107.211 1472.59,-101.138 1472.59,-92.534L1472.59,54.734L1650.23,-132.767C1654.27,-131.755 1660.09,-130.996 1667.68,-130.49C1675.28,-129.984 1682.99,-129.478 1690.84,-128.972C1698.68,-128.466 1706.02,-128.213 1712.85,-128.213L1777.76,-128.213L1586.46,69.157L1787.62,343.957L1663.89,348.511L1509.79,142.791Z" style="fill:rgb(245,51,94);fill-rule:nonzero;"/>
    </g>
</svg>
